<svg xmlns="http://www.w3.org/2000/svg" viewBox="0 0 24 24">
    <path fill="currentColor" d="m2 0.6s0.1 0 0 0c0.2-0.4 0.3-0.6 0.7-0.6h3.8 1.8c0.5 0 0.8 0.4 0.6 0.9-0.1 0.3-0.3 0.4-0.6 0.4h-4.2-0.6c-0.1
        0-0.2 0-0.1 0.2 0.3 1 0.7 2 1 3.1 1.2 3.7 2.3 7.3 3.5 11 0.6 1.8 1.1 3.6 1.7 5.4v0.1s0-0.1 0.1-0.1c1-3.2 1.9-6.5 2.9-9.7 0.3-1 0.6-2
        0.9-3v-0.4c-0.7-2.2-1.5-4.4-2.2-6.6-0.1-0.3-0.1-0.5 0-0.8 0.1-0.2 0.2-0.3 0.3-0.3h5c0.3 0.3 0.4 0.6 0.3 1-0.4 1.4-0.8 2.9-1.3 4.3-0.3
        0.9-0.5 1.7-0.8 2.6v0.3c0.6 1.7 1.2 3.5 1.7 5.2 0 0 0 0.1 0.1 0.1 0.2-0.4 0.3-0.8 0.5-1.2 1.2-3.2 2.4-6.4 3.7-9.7 0.2-0.8 0.4-1.4
        0.6-1.9v-0.1c0.1-0.3 0.4-0.5 0.7-0.4s0.6 0.4 0.5 0.8c0 0.3-0.2 0.5-0.3 0.8-1.6 4.3-3.3 8.7-4.9 13-0.1 0.2-0.2 0.4-0.2 0.6v0.1c-0.1
        0.3-0.4 0.5-0.6 0.4-0.3 0-0.5-0.2-0.6-0.5-0.6-1.7-1.2-3.5-1.7-5.2 0-0.1-0.1-0.1-0.1-0.2-0.1 0.3-0.2 0.7-0.3 1-1 3.3-2 6.7-3 10-0.2
        0.8-0.4 1.5-0.7 2.3-0.1 0.3-0.3 0.5-0.6 0.5-0.2 0-0.5-0.2-0.6-0.5-0.3-0.8-0.5-1.6-0.8-2.4-0.4-1.4-0.9-2.8-1.3-4.2-1-3.9-2.2-7.7-3.4-11.5-0.5-1.4-0.9-2.8-1.4-4.2
        0-0.1 0-0.2-0.1-0.2v-0.4zm12.2 5.3v-0.1c0.4-1.4 0.9-2.9 1.3-4.3 0.1-0.2 0.1-0.2-0.2-0.2h-2.5c-0.2 0-0.2 0-0.2 0.2 0.5 1.4 0.9 2.8 1.4
        4.2 0.1 0.1 0.1 0.2 0.2 0.2z" />
</svg>
